<svg xmlns="http://www.w3.org/2000/svg" viewBox="0 0 64 64">
<defs>
<radialGradient id="e3Water" cx="32" cy="30" r="32" gradientUnits="userSpaceOnUse"><stop offset="0" stop-color="#1F3A5F"/><stop offset="0.55" stop-color="#132238"/><stop offset="1" stop-color="#0A0E1A"/></radialGradient>
<linearGradient id="e3Paper" x1="14" y1="18" x2="50" y2="46" gradientUnits="userSpaceOnUse"><stop offset="0" stop-color="#F1E4C0"/><stop offset="0.4" stop-color="#E2CF9E"/><stop offset="0.75" stop-color="#CBB27C"/><stop offset="1" stop-color="#A88B55"/></linearGradient>
<linearGradient id="e3PaperEdge" x1="32" y1="16" x2="32" y2="48" gradientUnits="userSpaceOnUse"><stop offset="0" stop-color="#8D6E3F" stop-opacity="0.5"/><stop offset="0.5" stop-color="#8D6E3F" stop-opacity="0"/><stop offset="1" stop-color="#6B4F2A" stop-opacity="0.6"/></linearGradient>
<linearGradient id="e3Roll" x1="7" y1="0" x2="13" y2="0" gradientUnits="userSpaceOnUse"><stop offset="0" stop-color="#6B4F2A"/><stop offset="0.3" stop-color="#D9C28F"/><stop offset="0.6" stop-color="#B89A62"/><stop offset="1" stop-color="#5A4020"/></linearGradient>
<linearGradient id="e3RollR" x1="51" y1="0" x2="57" y2="0" gradientUnits="userSpaceOnUse"><stop offset="0" stop-color="#5A4020"/><stop offset="0.4" stop-color="#B89A62"/><stop offset="0.7" stop-color="#D9C28F"/><stop offset="1" stop-color="#6B4F2A"/></linearGradient>
<radialGradient id="e3Sea" cx="34" cy="32" r="18" gradientUnits="userSpaceOnUse"><stop offset="0" stop-color="#9ED7E6" stop-opacity="0.55"/><stop offset="0.7" stop-color="#5FB3CC" stop-opacity="0.35"/><stop offset="1" stop-color="#3C86A8" stop-opacity="0.2"/></radialGradient>
<linearGradient id="e3Brass" x1="42" y1="40" x2="56" y2="54" gradientUnits="userSpaceOnUse"><stop offset="0" stop-color="#FFE082"/><stop offset="0.3" stop-color="#D4A72C"/><stop offset="0.65" stop-color="#8D6E1F"/><stop offset="1" stop-color="#4E3A0C"/></linearGradient>
<linearGradient id="e3BrassLight" x1="44" y1="40" x2="54" y2="52" gradientUnits="userSpaceOnUse"><stop offset="0" stop-color="#FFF3C4"/><stop offset="1" stop-color="#C49A2E"/></linearGradient>
<radialGradient id="e3Dial" cx="48" cy="46" r="5" gradientUnits="userSpaceOnUse"><stop offset="0" stop-color="#FFFDF2"/><stop offset="0.8" stop-color="#E8DCBC"/><stop offset="1" stop-color="#B9A47A"/></radialGradient>
<linearGradient id="e3Glass" x1="42" y1="40" x2="54" y2="52" gradientUnits="userSpaceOnUse"><stop offset="0" stop-color="#FFFFFF" stop-opacity="0.5"/><stop offset="0.4" stop-color="#FFFFFF" stop-opacity="0.05"/><stop offset="1" stop-color="#00E5FF" stop-opacity="0.15"/></linearGradient>
<radialGradient id="e3Glow" cx="32" cy="32" r="26" gradientUnits="userSpaceOnUse"><stop offset="0" stop-color="#00E5FF" stop-opacity="0.25"/><stop offset="0.5" stop-color="#00E5FF" stop-opacity="0.08"/><stop offset="1" stop-color="#00E5FF" stop-opacity="0"/></radialGradient>
<linearGradient id="e3NeedleN" x1="48" y1="42" x2="48" y2="46" gradientUnits="userSpaceOnUse"><stop offset="0" stop-color="#FF5252"/><stop offset="1" stop-color="#B71C1C"/></linearGradient>
<linearGradient id="e3Land" x1="20" y1="20" x2="40" y2="44" gradientUnits="userSpaceOnUse"><stop offset="0" stop-color="#B8C98A"/><stop offset="1" stop-color="#7E9460"/></linearGradient>
<linearGradient id="e3Sext" x1="8" y1="8" x2="24" y2="24" gradientUnits="userSpaceOnUse"><stop offset="0" stop-color="#FFE082"/><stop offset="0.4" stop-color="#C49A2E"/><stop offset="1" stop-color="#6B4F15"/></linearGradient>
</defs>
<circle cx="32" cy="32" r="31" fill="url(#e3Water)"/>
<!-- rayons de lumiere -->
<path d="M22.79 3.45 L30.07 2.06 L14 50 L4.81 44.69 Z" fill="#448AFF" fill-opacity="0.05"/>
<path d="M35.84 2.25 L40.36 3.19 L34 46 L26 48 Z" fill="#448AFF" fill-opacity="0.04"/>
<path d="M46.49 5.73 L50.42 8.32 L52 40 L44 42 Z" fill="#448AFF" fill-opacity="0.04"/>
<circle cx="32" cy="32" r="31" fill="url(#e3Glow)"/>
<!-- particules en suspension -->
<circle cx="14.7" cy="43.2" r="0.37" fill="#E0F7FA" fill-opacity="0.19"/>
<circle cx="32.74" cy="36.72" r="0.21" fill="#E0F7FA" fill-opacity="0.15"/>
<circle cx="43.1" cy="48.72" r="0.4" fill="#E0F7FA" fill-opacity="0.32"/>
<circle cx="19.13" cy="44.33" r="0.33" fill="#E0F7FA" fill-opacity="0.23"/>
<circle cx="54.99" cy="43.45" r="0.32" fill="#E0F7FA" fill-opacity="0.18"/>
<circle cx="39.79" cy="35.67" r="0.39" fill="#E0F7FA" fill-opacity="0.18"/>
<circle cx="12.54" cy="12.47" r="0.19" fill="#E0F7FA" fill-opacity="0.25"/>
<circle cx="5.46" cy="35.81" r="0.22" fill="#E0F7FA" fill-opacity="0.21"/>
<circle cx="32.08" cy="38.21" r="0.33" fill="#E0F7FA" fill-opacity="0.35"/>
<circle cx="26.98" cy="34.12" r="0.34" fill="#E0F7FA" fill-opacity="0.33"/>
<circle cx="22.85" cy="18.81" r="0.36" fill="#E0F7FA" fill-opacity="0.31"/>
<circle cx="14.62" cy="20.97" r="0.23" fill="#E0F7FA" fill-opacity="0.26"/>
<circle cx="38.33" cy="9.73" r="0.26" fill="#E0F7FA" fill-opacity="0.35"/>
<circle cx="35.12" cy="27.05" r="0.21" fill="#E0F7FA" fill-opacity="0.21"/>
<circle cx="56.2" cy="34.22" r="0.32" fill="#E0F7FA" fill-opacity="0.29"/>
<circle cx="48.71" cy="31.44" r="0.22" fill="#E0F7FA" fill-opacity="0.18"/>
<circle cx="18.25" cy="53.63" r="0.31" fill="#E0F7FA" fill-opacity="0.16"/>
<circle cx="26.4" cy="34.5" r="0.32" fill="#E0F7FA" fill-opacity="0.18"/>
<circle cx="41.63" cy="52.27" r="0.36" fill="#E0F7FA" fill-opacity="0.3"/>
<circle cx="25.9" cy="53.65" r="0.24" fill="#E0F7FA" fill-opacity="0.15"/>
<circle cx="28.52" cy="54.97" r="0.32" fill="#E0F7FA" fill-opacity="0.2"/>
<circle cx="45.76" cy="10.51" r="0.24" fill="#E0F7FA" fill-opacity="0.39"/>
<circle cx="31.44" cy="39.11" r="0.29" fill="#E0F7FA" fill-opacity="0.37"/>
<circle cx="15.23" cy="19.87" r="0.29" fill="#E0F7FA" fill-opacity="0.22"/>
<circle cx="26.52" cy="48.91" r="0.3" fill="#E0F7FA" fill-opacity="0.39"/>
<circle cx="44.62" cy="38.21" r="0.39" fill="#E0F7FA" fill-opacity="0.31"/>
<circle cx="48.61" cy="40.38" r="0.32" fill="#E0F7FA" fill-opacity="0.38"/>
<circle cx="54.96" cy="45.43" r="0.35" fill="#E0F7FA" fill-opacity="0.22"/>
<circle cx="7.12" cy="26.7" r="0.23" fill="#E0F7FA" fill-opacity="0.33"/>
<circle cx="24.97" cy="29.21" r="0.24" fill="#E0F7FA" fill-opacity="0.25"/>
<ellipse cx="32" cy="50" rx="22" ry="3" fill="#05070F" fill-opacity="0.4"/>
<!-- parchemin deroule -->
<path d="M12 17.5 Q22 15.6 32 17 Q42 18.4 52 16.5 L52 47.5 Q42 49.4 32 48 Q22 46.6 12 48.5 Z" fill="url(#e3Paper)" stroke="#4E3A0C" stroke-width="0.7" stroke-linejoin="round"/>
<path d="M12 17.5 Q22 15.6 32 17 Q42 18.4 52 16.5 L52 47.5 Q42 49.4 32 48 Q22 46.6 12 48.5 Z" fill="url(#e3PaperEdge)"/>
<path d="M13.6 19 Q22 17.4 32 18.6 Q42 19.8 50.4 18" fill="none" stroke="#FFFFFF" stroke-width="0.4" stroke-opacity="0.5"/>
<!-- taches d'age et pliures -->
<ellipse cx="19.02" cy="44.48" rx="1.2" ry="0.71" fill="#8D6E3F" fill-opacity="0.12"/>
<ellipse cx="32.99" cy="27.62" rx="1.32" ry="0.95" fill="#8D6E3F" fill-opacity="0.15"/>
<ellipse cx="16.84" cy="43.63" rx="2.3" ry="1.11" fill="#8D6E3F" fill-opacity="0.14"/>
<ellipse cx="27.76" cy="44.99" rx="1.99" ry="1.12" fill="#8D6E3F" fill-opacity="0.1"/>
<ellipse cx="21.94" cy="37.67" rx="1.98" ry="0.5" fill="#8D6E3F" fill-opacity="0.09"/>
<ellipse cx="33.28" cy="24.72" rx="1.01" ry="0.67" fill="#8D6E3F" fill-opacity="0.06"/>
<ellipse cx="18.34" cy="29.57" rx="1.6" ry="1.07" fill="#8D6E3F" fill-opacity="0.09"/>
<ellipse cx="18.62" cy="43.84" rx="1.81" ry="1.11" fill="#8D6E3F" fill-opacity="0.13"/>
<ellipse cx="25.59" cy="35.03" rx="1.31" ry="1.09" fill="#8D6E3F" fill-opacity="0.14"/>
<ellipse cx="14.59" cy="40.48" rx="0.99" ry="0.51" fill="#8D6E3F" fill-opacity="0.07"/>
<ellipse cx="34.25" cy="42.16" rx="2.28" ry="0.64" fill="#8D6E3F" fill-opacity="0.1"/>
<ellipse cx="47.91" cy="42.96" rx="2.12" ry="0.72" fill="#8D6E3F" fill-opacity="0.09"/>
<ellipse cx="19.37" cy="26.11" rx="1.45" ry="1.22" fill="#8D6E3F" fill-opacity="0.13"/>
<ellipse cx="20.19" cy="23.83" rx="1.52" ry="1.3" fill="#8D6E3F" fill-opacity="0.11"/>
<path d="M32 17 L32.4 48" stroke="#6B4F2A" stroke-width="0.3" stroke-opacity="0.35"/>
<path d="M12.4 33 Q32 31.6 51.6 32.4" stroke="#6B4F2A" stroke-width="0.3" stroke-opacity="0.3" fill="none"/>
<!-- quadrillage de navigation -->
<path d="M16 18.6 V46.8" stroke="#8D6E3F" stroke-width="0.2" stroke-opacity="0.45"/>
<path d="M22 18.6 V46.8" stroke="#8D6E3F" stroke-width="0.2" stroke-opacity="0.45"/>
<path d="M28 18.6 V46.8" stroke="#8D6E3F" stroke-width="0.2" stroke-opacity="0.45"/>
<path d="M34 18.6 V46.8" stroke="#8D6E3F" stroke-width="0.2" stroke-opacity="0.45"/>
<path d="M40 18.6 V46.8" stroke="#8D6E3F" stroke-width="0.2" stroke-opacity="0.45"/>
<path d="M46 18.6 V46.8" stroke="#8D6E3F" stroke-width="0.2" stroke-opacity="0.45"/>
<path d="M13.2 21 H50.8" stroke="#8D6E3F" stroke-width="0.2" stroke-opacity="0.45"/>
<path d="M13.2 27 H50.8" stroke="#8D6E3F" stroke-width="0.2" stroke-opacity="0.45"/>
<path d="M13.2 33 H50.8" stroke="#8D6E3F" stroke-width="0.2" stroke-opacity="0.45"/>
<path d="M13.2 39 H50.8" stroke="#8D6E3F" stroke-width="0.2" stroke-opacity="0.45"/>
<path d="M13.2 45 H50.8" stroke="#8D6E3F" stroke-width="0.2" stroke-opacity="0.45"/>
<!-- mer, terres et recifs -->
<path d="M14 21 Q24 19.4 34 22 Q44 24.6 50.4 21 L50.6 44 Q40 46 30 43 Q20 40 13.6 44 Z" fill="url(#e3Sea)"/>
<path d="M13.4 38 Q17 34 22 36 Q26 38.6 24 42 Q19 45.6 13.4 44.4 Z" fill="url(#e3Land)" stroke="#4E5E33" stroke-width="0.4" stroke-linejoin="round"/>
<path d="M14.2 39 Q17.4 36 21 37.4 M15 42.4 Q19 44 22.6 41" fill="none" stroke="#4E5E33" stroke-width="0.25" stroke-opacity="0.7"/>
<path d="M40 19.4 Q46 18.2 50.6 20.8 L50.6 27 Q45 26 42 23 Q39.6 21.4 40 19.4 Z" fill="url(#e3Land)" stroke="#4E5E33" stroke-width="0.4" stroke-linejoin="round"/>
<path d="M42 21 Q46 20.4 49.6 22.4 M43.4 24 Q47 24.6 50 25.6" fill="none" stroke="#4E5E33" stroke-width="0.25" stroke-opacity="0.7"/>
<ellipse cx="27" cy="26" rx="1.1" ry="0.77" fill="#C7D6A0" stroke="#4E5E33" stroke-width="0.3"/>
<path d="M25.9 26.55 Q27 27.32 28.1 26.55" fill="none" stroke="#3C86A8" stroke-width="0.25"/>
<ellipse cx="30" cy="28.4" rx="0.8" ry="0.56" fill="#C7D6A0" stroke="#4E5E33" stroke-width="0.3"/>
<path d="M29.2 28.8 Q30 29.36 30.8 28.8" fill="none" stroke="#3C86A8" stroke-width="0.25"/>
<ellipse cx="35.4" cy="37.6" rx="1" ry="0.7" fill="#C7D6A0" stroke="#4E5E33" stroke-width="0.3"/>
<path d="M34.4 38.1 Q35.4 38.8 36.4 38.1" fill="none" stroke="#3C86A8" stroke-width="0.25"/>
<ellipse cx="38" cy="40" rx="0.7" ry="0.49" fill="#C7D6A0" stroke="#4E5E33" stroke-width="0.3"/>
<path d="M37.3 40.35 Q38 40.84 38.7 40.35" fill="none" stroke="#3C86A8" stroke-width="0.25"/>
<ellipse cx="22" cy="24.4" rx="0.7" ry="0.49" fill="#C7D6A0" stroke="#4E5E33" stroke-width="0.3"/>
<path d="M21.3 24.75 Q22 25.24 22.7 24.75" fill="none" stroke="#3C86A8" stroke-width="0.25"/>
<!-- lignes bathymetriques -->
<path d="M24 22 Q20 28 26 32 Q31 35 34 32" fill="none" stroke="#3C86A8" stroke-width="0.25" stroke-opacity="0.7"/>
<path d="M42 28 Q46 32 44 37" fill="none" stroke="#3C86A8" stroke-width="0.25" stroke-opacity="0.7"/>
<path d="M22.4 20.8 Q18.4 28 24.4 33.2 Q31 36.2 35.6 33.2" fill="none" stroke="#3C86A8" stroke-width="0.25" stroke-opacity="0.55"/>
<path d="M43.6 29.2 Q47.6 32 45.6 38.2" fill="none" stroke="#3C86A8" stroke-width="0.25" stroke-opacity="0.55"/>
<path d="M20.8 19.6 Q16.8 28 22.8 34.4 Q31 37.4 37.2 34.4" fill="none" stroke="#3C86A8" stroke-width="0.25" stroke-opacity="0.4"/>
<path d="M45.2 30.4 Q49.2 32 47.2 39.4" fill="none" stroke="#3C86A8" stroke-width="0.25" stroke-opacity="0.4"/>
<!-- reperes de profondeur (tirets) -->
<path d="M26 30 h1 M27.4 30 h1 M26 30.8 h1.6" stroke="#4E3A0C" stroke-width="0.3" stroke-opacity="0.8"/>
<path d="M36 29 h1 M37.4 29 h1 M36 29.8 h1.6" stroke="#4E3A0C" stroke-width="0.3" stroke-opacity="0.8"/>
<path d="M41 35 h1 M42.4 35 h1 M41 35.8 h1.6" stroke="#4E3A0C" stroke-width="0.3" stroke-opacity="0.8"/>
<path d="M20 28 h1 M21.4 28 h1 M20 28.8 h1.6" stroke="#4E3A0C" stroke-width="0.3" stroke-opacity="0.8"/>
<path d="M33 41 h1 M34.4 41 h1 M33 41.8 h1.6" stroke="#4E3A0C" stroke-width="0.3" stroke-opacity="0.8"/>
<!-- courants (fleches cyan) -->
<path d="M15 25 C20 23 24 27 30 25 C34 23.6 36 26 40 25" fill="none" stroke="#0A0E1A" stroke-width="1.3" stroke-opacity="0.25" stroke-linecap="round"/>
<path d="M15 25 C20 23 24 27 30 25 C34 23.6 36 26 40 25" fill="none" stroke="#00E5FF" stroke-width="0.7" stroke-linecap="round"/>
<path d="M15 25 C20 23 24 27 30 25 C34 23.6 36 26 40 25" fill="none" stroke="#E0F7FA" stroke-width="0.25" stroke-opacity="0.7" stroke-linecap="round"/>
<path d="M16 30.6 C22 29 26 33 32 31 C36 29.6 38 32 44 31" fill="none" stroke="#0A0E1A" stroke-width="1.3" stroke-opacity="0.25" stroke-linecap="round"/>
<path d="M16 30.6 C22 29 26 33 32 31 C36 29.6 38 32 44 31" fill="none" stroke="#00E5FF" stroke-width="0.7" stroke-linecap="round"/>
<path d="M16 30.6 C22 29 26 33 32 31 C36 29.6 38 32 44 31" fill="none" stroke="#E0F7FA" stroke-width="0.25" stroke-opacity="0.7" stroke-linecap="round"/>
<path d="M24 44 C28 41 32 43.6 36 41 C39 39.4 42 41 46 39" fill="none" stroke="#0A0E1A" stroke-width="1.3" stroke-opacity="0.25" stroke-linecap="round"/>
<path d="M24 44 C28 41 32 43.6 36 41 C39 39.4 42 41 46 39" fill="none" stroke="#00E5FF" stroke-width="0.7" stroke-linecap="round"/>
<path d="M24 44 C28 41 32 43.6 36 41 C39 39.4 42 41 46 39" fill="none" stroke="#E0F7FA" stroke-width="0.25" stroke-opacity="0.7" stroke-linecap="round"/>
<path d="M34 19.6 C37 19 38 21 41 20.4" fill="none" stroke="#0A0E1A" stroke-width="1.3" stroke-opacity="0.25" stroke-linecap="round"/>
<path d="M34 19.6 C37 19 38 21 41 20.4" fill="none" stroke="#00E5FF" stroke-width="0.7" stroke-linecap="round"/>
<path d="M34 19.6 C37 19 38 21 41 20.4" fill="none" stroke="#E0F7FA" stroke-width="0.25" stroke-opacity="0.7" stroke-linecap="round"/>
<path d="M-1.6 -1.2 L0.4 0 L-1.6 1.2" fill="none" stroke="#00E5FF" stroke-width="0.7" stroke-linecap="round" stroke-linejoin="round" transform="translate(40 25) rotate(-10)"/>
<path d="M-1.6 -1.2 L0.4 0 L-1.6 1.2" fill="none" stroke="#00E5FF" stroke-width="0.7" stroke-linecap="round" stroke-linejoin="round" transform="translate(44 31) rotate(-8)"/>
<path d="M-1.6 -1.2 L0.4 0 L-1.6 1.2" fill="none" stroke="#00E5FF" stroke-width="0.7" stroke-linecap="round" stroke-linejoin="round" transform="translate(46 39) rotate(-25)"/>
<path d="M-1.6 -1.2 L0.4 0 L-1.6 1.2" fill="none" stroke="#00E5FF" stroke-width="0.7" stroke-linecap="round" stroke-linejoin="round" transform="translate(41 20.4) rotate(-12)"/>
<!-- route pointillee et croix -->
<path d="M18 22 L24.6 29.8 L30.4 36.4 L38 36" fill="none" stroke="#B71C1C" stroke-width="0.4" stroke-dasharray="0.8 0.8" stroke-linecap="round"/>
<path d="M37 35 L39.4 37.4 M39.4 35 L37 37.4" stroke="#B71C1C" stroke-width="0.6" stroke-linecap="round"/>
<!-- rose des vents -->
<path d="M25 40.5 L24.66 39.67 L25 36.3 Z" fill="#2B2B2B"/>
<path d="M25 40.5 L25.34 39.67 L25 36.3 Z" fill="#F5EAD0" stroke="#2B2B2B" stroke-width="0.2"/>
<path d="M25 40.5 L25.35 39.67 L26.84 38.66 Z" fill="#2B2B2B"/>
<path d="M25 40.5 L25.83 40.15 L26.84 38.66 Z" fill="#F5EAD0" stroke="#2B2B2B" stroke-width="0.2"/>
<path d="M25 40.5 L25.83 40.16 L29.2 40.5 Z" fill="#2B2B2B"/>
<path d="M25 40.5 L25.83 40.84 L29.2 40.5 Z" fill="#F5EAD0" stroke="#2B2B2B" stroke-width="0.2"/>
<path d="M25 40.5 L25.83 40.85 L26.84 42.34 Z" fill="#2B2B2B"/>
<path d="M25 40.5 L25.35 41.33 L26.84 42.34 Z" fill="#F5EAD0" stroke="#2B2B2B" stroke-width="0.2"/>
<path d="M25 40.5 L25.34 41.33 L25 44.7 Z" fill="#2B2B2B"/>
<path d="M25 40.5 L24.66 41.33 L25 44.7 Z" fill="#F5EAD0" stroke="#2B2B2B" stroke-width="0.2"/>
<path d="M25 40.5 L24.65 41.33 L23.16 42.34 Z" fill="#2B2B2B"/>
<path d="M25 40.5 L24.17 40.85 L23.16 42.34 Z" fill="#F5EAD0" stroke="#2B2B2B" stroke-width="0.2"/>
<path d="M25 40.5 L24.17 40.84 L20.8 40.5 Z" fill="#2B2B2B"/>
<path d="M25 40.5 L24.17 40.16 L20.8 40.5 Z" fill="#F5EAD0" stroke="#2B2B2B" stroke-width="0.2"/>
<path d="M25 40.5 L24.17 40.15 L23.16 38.66 Z" fill="#2B2B2B"/>
<path d="M25 40.5 L24.65 39.67 L23.16 38.66 Z" fill="#F5EAD0" stroke="#2B2B2B" stroke-width="0.2"/>
<circle cx="25" cy="40.5" r="1.8" fill="none" stroke="#2B2B2B" stroke-width="0.3"/>
<circle cx="25" cy="40.5" r="0.5" fill="#B71C1C"/>
<!-- rouleaux -->
<path d="M10 16 Q7 16 7 19 V46 Q7 49 10 49 H12.6 Q13.6 49 13.6 46 V19 Q13.6 16 12.6 16 Z" fill="url(#e3Roll)" stroke="#4E3A0C" stroke-width="0.6" stroke-linejoin="round"/>
<ellipse cx="10.4" cy="16.6" rx="3" ry="1.3" fill="#D9C28F" stroke="#4E3A0C" stroke-width="0.5"/>
<ellipse cx="10.4" cy="16.6" rx="1.4" ry="0.6" fill="#8D6E3F" stroke="#4E3A0C" stroke-width="0.3"/>
<path d="M8.8 18.4 V46.8" stroke="#FFFFFF" stroke-width="0.4" stroke-opacity="0.45"/>
<path d="M51.4 16 Q50.4 16 50.4 19 V46 Q50.4 49 51.4 49 H54 Q57 49 57 46 V19 Q57 16 54 16 Z" fill="url(#e3RollR)" stroke="#4E3A0C" stroke-width="0.6" stroke-linejoin="round"/>
<ellipse cx="53.6" cy="48.4" rx="3" ry="1.3" fill="#B89A62" stroke="#4E3A0C" stroke-width="0.5"/>
<ellipse cx="53.6" cy="48.4" rx="1.4" ry="0.6" fill="#6B4F2A" stroke="#4E3A0C" stroke-width="0.3"/>
<path d="M54.6 18.2 V46.4" stroke="#FFFFFF" stroke-width="0.4" stroke-opacity="0.4"/>
<path d="M7.4 36 H13.4 M50.6 28 H56.8" stroke="#4E3A0C" stroke-width="0.3" stroke-opacity="0.5"/>
<!-- sextant -->
<path d="M18.77 17.43 A9.2 9.2 0 0 1 12.35 11.65" fill="none" stroke="#06091A" stroke-width="2.4" stroke-linecap="round"/>
<path d="M18.77 17.43 A9.2 9.2 0 0 1 12.35 11.65" fill="none" stroke="url(#e3Sext)" stroke-width="1.6" stroke-linecap="round"/>
<path d="M18.63 16.77 L18.24 18.11" stroke="#4E3A0C" stroke-width="0.25"/>
<path d="M17.89 16.52 L17.53 17.45" stroke="#4E3A0C" stroke-width="0.25"/>
<path d="M17.18 16.2 L16.73 17.1" stroke="#4E3A0C" stroke-width="0.25"/>
<path d="M16.49 15.82 L15.97 16.68" stroke="#4E3A0C" stroke-width="0.25"/>
<path d="M15.85 15.39 L15.25 16.19" stroke="#4E3A0C" stroke-width="0.25"/>
<path d="M15.25 14.89 L14.31 15.93" stroke="#4E3A0C" stroke-width="0.25"/>
<path d="M14.69 14.34 L13.96 15.02" stroke="#4E3A0C" stroke-width="0.25"/>
<path d="M14.19 13.75 L13.39 14.36" stroke="#4E3A0C" stroke-width="0.25"/>
<path d="M13.74 13.11 L12.89 13.64" stroke="#4E3A0C" stroke-width="0.25"/>
<path d="M13.35 12.43 L12.46 12.89" stroke="#4E3A0C" stroke-width="0.25"/>
<path d="M13.03 11.72 L11.73 12.25" stroke="#4E3A0C" stroke-width="0.25"/>
<path d="M21 8.5 L18.77 17.43" stroke="#06091A" stroke-width="1.5" stroke-linecap="round"/>
<path d="M21 8.5 L18.77 17.43" stroke="url(#e3Sext)" stroke-width="0.8" stroke-linecap="round"/>
<path d="M21 8.5 L12.35 11.65" stroke="#06091A" stroke-width="1.5" stroke-linecap="round"/>
<path d="M21 8.5 L12.35 11.65" stroke="url(#e3Sext)" stroke-width="0.8" stroke-linecap="round"/>
<path d="M21 8.5 L13.91 15.84" stroke="#06091A" stroke-width="1.4" stroke-linecap="round"/>
<path d="M21 8.5 L13.91 15.84" stroke="#B0C4D8" stroke-width="0.7" stroke-linecap="round"/>
<path d="M16.6 9.1 L22.4 14.7" stroke="#06091A" stroke-width="2" stroke-linecap="round"/>
<path d="M16.6 9.1 L22.4 14.7" stroke="#78909C" stroke-width="1.2" stroke-linecap="round"/>
<path d="M17 8.9 L22 13.9" stroke="#CFD8DC" stroke-width="0.3" stroke-opacity="0.8" stroke-linecap="round"/>
<rect x="18.8" y="4.1" width="3" height="2.4" rx="0.4" fill="#3A4E6A" stroke="#06091A" stroke-width="0.35" transform="rotate(40 20.3 5.3)"/>
<circle cx="21" cy="8.5" r="1.4" fill="url(#e3Sext)" stroke="#06091A" stroke-width="0.4"/>
<circle cx="20.6" cy="8.1" r="0.45" fill="#FFF3C4"/>
<circle cx="13.91" cy="15.84" r="0.8" fill="url(#e3Sext)" stroke="#06091A" stroke-width="0.3"/>
<!-- compas de laiton -->
<ellipse cx="47.6" cy="52.4" rx="6.4" ry="1.4" fill="#05070F" fill-opacity="0.5"/>
<circle cx="48" cy="46" r="7.6" fill="url(#e3Brass)" stroke="#2E2008" stroke-width="0.7"/>
<circle cx="48" cy="46" r="6.6" fill="none" stroke="url(#e3BrassLight)" stroke-width="0.5"/>
<path d="M53.6 46 L54.6 46" stroke="#2E2008" stroke-width="0.3"/>
<path d="M53.99 47.6 L54.38 47.71" stroke="#2E2008" stroke-width="0.3"/>
<path d="M53.37 49.1 L53.72 49.3" stroke="#2E2008" stroke-width="0.3"/>
<path d="M52.38 50.38 L52.67 50.67" stroke="#2E2008" stroke-width="0.3"/>
<path d="M51.1 51.37 L51.3 51.72" stroke="#2E2008" stroke-width="0.3"/>
<path d="M49.6 51.99 L49.71 52.38" stroke="#2E2008" stroke-width="0.3"/>
<path d="M48 51.6 L48 52.6" stroke="#2E2008" stroke-width="0.3"/>
<path d="M46.4 51.99 L46.29 52.38" stroke="#2E2008" stroke-width="0.3"/>
<path d="M44.9 51.37 L44.7 51.72" stroke="#2E2008" stroke-width="0.3"/>
<path d="M43.62 50.38 L43.33 50.67" stroke="#2E2008" stroke-width="0.3"/>
<path d="M42.63 49.1 L42.28 49.3" stroke="#2E2008" stroke-width="0.3"/>
<path d="M42.01 47.6 L41.62 47.71" stroke="#2E2008" stroke-width="0.3"/>
<path d="M42.4 46 L41.4 46" stroke="#2E2008" stroke-width="0.3"/>
<path d="M42.01 44.4 L41.62 44.29" stroke="#2E2008" stroke-width="0.3"/>
<path d="M42.63 42.9 L42.28 42.7" stroke="#2E2008" stroke-width="0.3"/>
<path d="M43.62 41.62 L43.33 41.33" stroke="#2E2008" stroke-width="0.3"/>
<path d="M44.9 40.63 L44.7 40.28" stroke="#2E2008" stroke-width="0.3"/>
<path d="M46.4 40.01 L46.29 39.62" stroke="#2E2008" stroke-width="0.3"/>
<path d="M48 40.4 L48 39.4" stroke="#2E2008" stroke-width="0.3"/>
<path d="M49.6 40.01 L49.71 39.62" stroke="#2E2008" stroke-width="0.3"/>
<path d="M51.1 40.63 L51.3 40.28" stroke="#2E2008" stroke-width="0.3"/>
<path d="M52.38 41.62 L52.67 41.33" stroke="#2E2008" stroke-width="0.3"/>
<path d="M53.37 42.9 L53.72 42.7" stroke="#2E2008" stroke-width="0.3"/>
<path d="M53.99 44.4 L54.38 44.29" stroke="#2E2008" stroke-width="0.3"/>
<circle cx="48" cy="46" r="5.2" fill="url(#e3Dial)" stroke="#4E3A0C" stroke-width="0.4"/>
<path d="M48 46 L48.53 45.03 L48 41.6 L47.47 45.03 Z" fill="#3A4E6A" fill-opacity="0.6" stroke="#2B2B2B" stroke-width="0.2"/>
<path d="M48 46 L48.97 46.53 L52.4 46 L48.97 45.47 Z" fill="#3A4E6A" fill-opacity="0.6" stroke="#2B2B2B" stroke-width="0.2"/>
<path d="M48 46 L47.47 46.97 L48 50.4 L48.53 46.97 Z" fill="#3A4E6A" fill-opacity="0.6" stroke="#2B2B2B" stroke-width="0.2"/>
<path d="M48 46 L47.03 45.47 L43.6 46 L47.03 46.53 Z" fill="#3A4E6A" fill-opacity="0.6" stroke="#2B2B2B" stroke-width="0.2"/>
<path d="M48 41.8 L49.1 46 L46.9 46 Z" fill="url(#e3NeedleN)" stroke="#4E0A0A" stroke-width="0.25"/>
<path d="M48 50.2 L49.1 46 L46.9 46 Z" fill="#F5EAD0" stroke="#2B2B2B" stroke-width="0.25"/>
<circle cx="48" cy="46" r="0.7" fill="#D4A72C" stroke="#2E2008" stroke-width="0.25"/>
<circle cx="48" cy="46" r="5.2" fill="url(#e3Glass)"/>
<path d="M44.2 43.4 A5 5 0 0 1 47 41.2" fill="none" stroke="#FFFFFF" stroke-width="0.6" stroke-opacity="0.8" stroke-linecap="round"/>
<circle cx="48" cy="46" r="7.6" fill="none" stroke="#00E5FF" stroke-width="0.4" stroke-opacity="0.35"/>
<path d="M52.4 51.8 L53.2 52.8" stroke="#06091A" stroke-width="1.4" stroke-linecap="round"/>
<path d="M52.4 51.8 L53.2 52.8" stroke="url(#e3Brass)" stroke-width="0.8" stroke-linecap="round"/>
<circle cx="53.3" cy="52.9" r="0.8" fill="url(#e3Brass)" stroke="#2E2008" stroke-width="0.35"/>
<!-- bulles -->
<circle cx="53" cy="13.4" r="1.1" fill="#E0F7FA" fill-opacity="0.1" stroke="#E0F7FA" stroke-width="0.4" stroke-opacity="0.65"/>
<circle cx="52.62" cy="13.02" r="0.31" fill="#FFFFFF" fill-opacity="0.85"/>
<path d="M53.6 13.62 A0.77 0.77 0 0 1 53.11 14.12" fill="none" stroke="#FFFFFF" stroke-width="0.25" stroke-opacity="0.5"/>
<circle cx="52.4" cy="10.8" r="0.6" fill="#E0F7FA" fill-opacity="0.1" stroke="#E0F7FA" stroke-width="0.4" stroke-opacity="0.65"/>
<circle cx="52.19" cy="10.59" r="0.2" fill="#FFFFFF" fill-opacity="0.85"/>
<path d="M52.73 10.92 A0.42 0.42 0 0 1 52.46 11.19" fill="none" stroke="#FFFFFF" stroke-width="0.25" stroke-opacity="0.5"/>
<circle cx="6" cy="28" r="0.9" fill="#E0F7FA" fill-opacity="0.1" stroke="#E0F7FA" stroke-width="0.4" stroke-opacity="0.65"/>
<circle cx="5.68" cy="27.68" r="0.25" fill="#FFFFFF" fill-opacity="0.85"/>
<path d="M6.5 28.18 A0.63 0.63 0 0 1 6.09 28.59" fill="none" stroke="#FFFFFF" stroke-width="0.25" stroke-opacity="0.5"/>
<circle cx="4.8" cy="24" r="0.5" fill="#E0F7FA" fill-opacity="0.1" stroke="#E0F7FA" stroke-width="0.4" stroke-opacity="0.65"/>
<circle cx="4.62" cy="23.82" r="0.2" fill="#FFFFFF" fill-opacity="0.85"/>
<path d="M5.08 24.1 A0.35 0.35 0 0 1 4.85 24.32" fill="none" stroke="#FFFFFF" stroke-width="0.25" stroke-opacity="0.5"/>
<circle cx="30" cy="55" r="0.9" fill="#E0F7FA" fill-opacity="0.1" stroke="#E0F7FA" stroke-width="0.4" stroke-opacity="0.65"/>
<circle cx="29.68" cy="54.69" r="0.25" fill="#FFFFFF" fill-opacity="0.85"/>
<path d="M30.5 55.18 A0.63 0.63 0 0 1 30.09 55.59" fill="none" stroke="#FFFFFF" stroke-width="0.25" stroke-opacity="0.5"/>
<circle cx="27.6" cy="52.6" r="0.5" fill="#E0F7FA" fill-opacity="0.1" stroke="#E0F7FA" stroke-width="0.4" stroke-opacity="0.65"/>
<circle cx="27.43" cy="52.43" r="0.2" fill="#FFFFFF" fill-opacity="0.85"/>
<path d="M27.88 52.7 A0.35 0.35 0 0 1 27.65 52.93" fill="none" stroke="#FFFFFF" stroke-width="0.25" stroke-opacity="0.5"/>
<!-- anneau de la branche -->
<circle cx="32" cy="32" r="30.4" fill="none" stroke="#00E5FF" stroke-width="0.9" stroke-opacity="0.7"/>
<circle cx="32" cy="32" r="31" fill="none" stroke="#0A0E1A" stroke-width="0.7"/>
</svg>
