<svg xmlns="http://www.w3.org/2000/svg" viewBox="0 0 64 64">
  <defs>
    <radialGradient id="ex4aGlow" cx="34" cy="44" r="28" gradientUnits="userSpaceOnUse">
      <stop offset="0" stop-color="#FFD54F" stop-opacity="0.3"/>
      <stop offset="0.35" stop-color="#00E5FF" stop-opacity="0.14"/>
      <stop offset="1" stop-color="#448AFF" stop-opacity="0"/>
    </radialGradient>
    <linearGradient id="ex4aSand" x1="0" y1="50" x2="0" y2="64" gradientUnits="userSpaceOnUse">
      <stop offset="0" stop-color="#3A5A80"/>
      <stop offset="1" stop-color="#101E38"/>
    </linearGradient>
    <linearGradient id="ex4aHull" x1="20" y1="28" x2="30" y2="54" gradientUnits="userSpaceOnUse">
      <stop offset="0" stop-color="#5C7AA8"/>
      <stop offset="0.45" stop-color="#2A4370"/>
      <stop offset="1" stop-color="#0E1B38"/>
    </linearGradient>
    <linearGradient id="ex4aMast" x1="0" y1="0" x2="1" y2="0">
      <stop offset="0" stop-color="#7E99C2"/>
      <stop offset="1" stop-color="#1E3158"/>
    </linearGradient>
    <linearGradient id="ex4aGold" x1="0" y1="0" x2="0" y2="1">
      <stop offset="0" stop-color="#FFF59D"/>
      <stop offset="0.5" stop-color="#FFD54F"/>
      <stop offset="1" stop-color="#E65100"/>
    </linearGradient>
    <radialGradient id="ex4aPearl" cx="0.35" cy="0.3" r="0.75">
      <stop offset="0" stop-color="#FFFFFF"/>
      <stop offset="0.55" stop-color="#E0F7FA"/>
      <stop offset="1" stop-color="#80A8C8"/>
    </radialGradient>
    <linearGradient id="ex4aHook" x1="0" y1="0" x2="1" y2="1">
      <stop offset="0" stop-color="#E3F2FD"/>
      <stop offset="0.5" stop-color="#90A4AE"/>
      <stop offset="1" stop-color="#37474F"/>
    </linearGradient>
    <radialGradient id="ex4aHole" cx="36" cy="44" r="5" gradientUnits="userSpaceOnUse">
      <stop offset="0" stop-color="#FFD54F" stop-opacity="0.8"/>
      <stop offset="0.5" stop-color="#3E2A00"/>
      <stop offset="1" stop-color="#0A0E1A"/>
    </radialGradient>
  </defs>

  <circle cx="32" cy="38" r="28" fill="url(#ex4aGlow)"/>

  <!-- seabed -->
  <ellipse cx="32" cy="58" rx="29" ry="4.2" fill="#000" fill-opacity="0.38"/>
  <path d="M2 64 Q3 54 16 52.6 H48 Q61 54 62 64 Z" fill="url(#ex4aSand)" stroke="#0A0E1A" stroke-width="0.5" stroke-opacity="0.7"/>

  <!-- broken mast -->
  <g>
    <path d="M22 33.6 L28.6 10 L30.4 12.2 L31.6 9.4 L31 13.4 L25 34.6 Z" fill="url(#ex4aMast)" stroke="#06183A" stroke-width="0.55" stroke-linejoin="round"/>
    <path d="M23.4 32.4 L29 12" stroke="#BBDEFB" stroke-width="0.45" stroke-opacity="0.6"/>
    <path d="M17 22 L37.4 25.6" stroke="#06183A" stroke-width="1.6" stroke-linecap="round"/>
    <path d="M17 22 L37.4 25.6" stroke="#7E99C2" stroke-width="0.8" stroke-linecap="round"/>
    <!-- tattered sail -->
    <path d="M27.4 24.4 Q34 27 36.6 25.8 L35 31 L37 33 L32.6 33.6 L33.6 36 L26 34 Z" fill="#B0C4DE" fill-opacity="0.45" stroke="#06183A" stroke-width="0.4" stroke-linejoin="round"/>
    <!-- seaweed on mast -->
    <path d="M26.6 18 Q24.6 21 26.4 24 Q24.6 27 26 30" fill="none" stroke="#1DE9B6" stroke-width="0.7" stroke-opacity="0.8" stroke-linecap="round"/>
  </g>

  <!-- hull -->
  <g>
    <path d="M5 26 Q22 32.6 56 38.4 L53 44 Q47 53.6 32 54 Q16 53.6 10 42 Q6.4 34 5 26 Z" fill="url(#ex4aHull)" stroke="#06183A" stroke-width="0.7" stroke-linejoin="round"/>
    <!-- planks -->
    <g fill="none" stroke="#0E1B38" stroke-width="0.45" stroke-opacity="0.85">
      <path d="M6.2 31 Q24 37 54.6 41.6"/>
      <path d="M7.8 36.6 Q26 42.4 52.6 45.4"/>
      <path d="M10 42 Q26 47.8 49.6 49"/>
      <path d="M14 47.6 Q28 52 43 52.4"/>
    </g>
    <g stroke="#0E1B38" stroke-width="0.35" stroke-opacity="0.7">
      <path d="M16 31.6 V36.6 M29 36 V41.6 M44 39.6 V44.6 M20 39.6 V44.4 M46 44.8 V48.8 M24 46 V50"/>
    </g>
    <!-- rail + rim light -->
    <path d="M5 26 Q22 32.6 56 38.4" fill="none" stroke="#06183A" stroke-width="1.8" stroke-linecap="round"/>
    <path d="M5.4 26.2 Q22 32.6 55.6 38.4" fill="none" stroke="#8FB0DA" stroke-width="0.8" stroke-linecap="round"/>
    <path d="M7 27.6 Q20 32 32 34.4" fill="none" stroke="#E0F7FA" stroke-width="0.4" stroke-opacity="0.8"/>
    <path d="M53.4 43 Q48 52 36 53.6" fill="none" stroke="#00E5FF" stroke-width="0.7" stroke-opacity="0.7" stroke-linecap="round"/>
    <!-- portholes -->
    <circle cx="16" cy="38" r="1.6" fill="#0A0E1A" stroke="#8FB0DA" stroke-width="0.5"/>
    <circle cx="16" cy="38" r="0.8" fill="#00E5FF" fill-opacity="0.6"/>
    <circle cx="24" cy="41" r="1.6" fill="#0A0E1A" stroke="#8FB0DA" stroke-width="0.5"/>
    <circle cx="24" cy="41" r="0.8" fill="#00E5FF" fill-opacity="0.6"/>
    <!-- barnacles -->
    <g fill="#B0BEC5" stroke="#263238" stroke-width="0.25">
      <circle cx="12" cy="44" r="0.8"/>
      <circle cx="13.6" cy="45.4" r="0.6"/>
      <circle cx="47" cy="50" r="0.7"/>
    </g>
    <!-- breach -->
    <path d="M32 40.4 L34.6 39 L36.4 40.8 L39 39.8 L40.4 43 L39.4 46.4 L36.6 48 L33.4 47 L31.6 44.6 Z" fill="url(#ex4aHole)" stroke="#06183A" stroke-width="0.5" stroke-linejoin="round"/>
    <path d="M32 40.4 L34.6 39 L36.4 40.8 L39 39.8" fill="none" stroke="#8FB0DA" stroke-width="0.4"/>
  </g>

  <!-- spilling loot -->
  <g transform="translate(38 57) scale(1.28) translate(-38 -57)">
    <path d="M30 56.6 Q32 50 36.6 47 Q40 50 46 56.6 Z" fill="url(#ex4aGold)" stroke="#6D3A00" stroke-width="0.5" stroke-linejoin="round"/>
    <g fill="url(#ex4aGold)" stroke="#6D3A00" stroke-width="0.35">
      <ellipse cx="35" cy="53.4" rx="1.6" ry="0.8"/>
      <ellipse cx="40" cy="52.6" rx="1.6" ry="0.8"/>
      <ellipse cx="37.6" cy="50" rx="1.5" ry="0.75"/>
      <ellipse cx="43.4" cy="55.4" rx="1.6" ry="0.8"/>
      <ellipse cx="32" cy="56.4" rx="1.5" ry="0.75"/>
      <ellipse cx="49" cy="57" rx="1.4" ry="0.7"/>
      <ellipse cx="26.6" cy="57.6" rx="1.3" ry="0.65"/>
    </g>
    <!-- falling coins -->
    <ellipse cx="38.6" cy="46" rx="1.3" ry="1.1" fill="url(#ex4aGold)" stroke="#6D3A00" stroke-width="0.3" transform="rotate(30 38.6 46)"/>
    <ellipse cx="41.6" cy="48.6" rx="0.6" ry="1.2" fill="url(#ex4aGold)" stroke="#6D3A00" stroke-width="0.3"/>
    <!-- pearls -->
    <g stroke="#4F6F8F" stroke-width="0.3">
      <circle cx="36" cy="51.6" r="1.2" fill="url(#ex4aPearl)"/>
      <circle cx="41.8" cy="54.2" r="1.1" fill="url(#ex4aPearl)"/>
      <circle cx="29.6" cy="58" r="1" fill="url(#ex4aPearl)"/>
      <circle cx="46.4" cy="58.4" r="1" fill="url(#ex4aPearl)"/>
    </g>
    <!-- glints -->
    <g fill="#FFFFFF">
      <path d="M40 49.4 L40.4 50.6 L41.6 51 L40.4 51.4 L40 52.6 L39.6 51.4 L38.4 51 L39.6 50.6 Z"/>
      <path d="M45 52.4 L45.25 53.2 L46 53.4 L45.25 53.6 L45 54.4 L44.75 53.6 L44 53.4 L44.75 53.2 Z"/>
      <path d="M33 53.6 L33.25 54.3 L34 54.5 L33.25 54.7 L33 55.4 L32.75 54.7 L32 54.5 L32.75 54.3 Z"/>
    </g>
  </g>

  <!-- grappling hook -->
  <g>
    <path d="M60 0 Q56 14 49.6 24.4" fill="none" stroke="#06183A" stroke-width="1.8" stroke-linecap="round"/>
    <path d="M60 0 Q56 14 49.6 24.4" fill="none" stroke="#C8A97E" stroke-width="1" stroke-linecap="round" stroke-dasharray="1.2 0.5"/>
    <circle cx="49.4" cy="25" r="1.3" fill="none" stroke="#06183A" stroke-width="1.6"/>
    <circle cx="49.4" cy="25" r="1.3" fill="none" stroke="#B0BEC5" stroke-width="0.8"/>
    <path d="M48.8 26.4 L46.4 37" stroke="#06183A" stroke-width="2.4" stroke-linecap="round"/>
    <path d="M48.8 26.4 L46.4 37" stroke="url(#ex4aHook)" stroke-width="1.4" stroke-linecap="round"/>
    <path d="M46.4 37 Q41.4 38.6 41.6 33.8 M46.4 37 Q51.4 39.6 52.8 35 M46.4 37 Q46 41 43.6 40.4" fill="none" stroke="#06183A" stroke-width="2" stroke-linecap="round"/>
    <path d="M46.4 37 Q41.4 38.6 41.6 33.8 M46.4 37 Q51.4 39.6 52.8 35 M46.4 37 Q46 41 43.6 40.4" fill="none" stroke="url(#ex4aHook)" stroke-width="1.1" stroke-linecap="round"/>
    <path d="M41.6 33.8 L41 32.6 M52.8 35 L53.6 34" stroke="#E3F2FD" stroke-width="0.8" stroke-linecap="round"/>
    <path d="M48.4 27.6 L47 34" stroke="#FFFFFF" stroke-width="0.35" stroke-opacity="0.8"/>
  </g>

  <!-- plankton & bubbles -->
  <g fill="#00E5FF">
    <circle cx="5" cy="8" r="1.4" fill-opacity="0.15"/>
    <circle cx="5" cy="8" r="0.45"/>
    <circle cx="12" cy="16" r="0.4" fill-opacity="0.7"/>
  </g>
  <g fill="#E0F7FA" fill-opacity="0.12" stroke="#E0F7FA" stroke-width="0.4" stroke-opacity="0.7">
    <circle cx="37" cy="36" r="1.2"/>
    <circle cx="38.6" cy="32.6" r="0.8"/>
    <circle cx="36.4" cy="29.4" r="0.6"/>
  </g>
  <circle cx="36.6" cy="35.6" r="0.35" fill="#FFFFFF"/>
</svg>
