<svg xmlns="http://www.w3.org/2000/svg" viewBox="0 0 64 64">
  <defs>
    <radialGradient id="r2aGlow" cx="32" cy="32" r="30" gradientUnits="userSpaceOnUse">
      <stop offset="0" stop-color="#69F0AE" stop-opacity="0.3"/>
      <stop offset="0.6" stop-color="#FF6E91" stop-opacity="0.08"/>
      <stop offset="1" stop-color="#FF6E91" stop-opacity="0"/>
    </radialGradient>
    <linearGradient id="r2aBed" x1="0" y1="38" x2="0" y2="60" gradientUnits="userSpaceOnUse">
      <stop offset="0" stop-color="#5D4037"/>
      <stop offset="0.5" stop-color="#3E2723"/>
      <stop offset="1" stop-color="#1B0F0C"/>
    </linearGradient>
    <linearGradient id="r2aFrame" x1="0" y1="0" x2="0" y2="1">
      <stop offset="0" stop-color="#CFD8DC"/>
      <stop offset="0.45" stop-color="#78909C"/>
      <stop offset="1" stop-color="#263238"/>
    </linearGradient>
    <linearGradient id="r2aSoil" x1="0" y1="36" x2="0" y2="46" gradientUnits="userSpaceOnUse">
      <stop offset="0" stop-color="#2E7D5B"/>
      <stop offset="1" stop-color="#0B3D2A"/>
    </linearGradient>
    <linearGradient id="r2aAlgae" x1="0" y1="44" x2="0" y2="14" gradientUnits="userSpaceOnUse">
      <stop offset="0" stop-color="#0E6B45"/>
      <stop offset="0.6" stop-color="#3DDC97"/>
      <stop offset="1" stop-color="#B9F6CA"/>
    </linearGradient>
    <linearGradient id="r2aCoral" x1="0" y1="44" x2="0" y2="8" gradientUnits="userSpaceOnUse">
      <stop offset="0" stop-color="#AD1457"/>
      <stop offset="0.55" stop-color="#FF6E91"/>
      <stop offset="1" stop-color="#FFCDD2"/>
    </linearGradient>
    <radialGradient id="r2aTip" cx="0.35" cy="0.3" r="0.8">
      <stop offset="0" stop-color="#FFFFFF"/>
      <stop offset="0.45" stop-color="#FF9EB5"/>
      <stop offset="1" stop-color="#E91E63"/>
    </radialGradient>
    <radialGradient id="r2aPod" cx="0.35" cy="0.3" r="0.8">
      <stop offset="0" stop-color="#FFFFFF"/>
      <stop offset="0.4" stop-color="#B9F6CA"/>
      <stop offset="1" stop-color="#1DE9B6"/>
    </radialGradient>
  </defs>

  <!-- background glow -->
  <circle cx="32" cy="32" r="30" fill="url(#r2aGlow)"/>

  <!-- shadow -->
  <ellipse cx="32" cy="58.6" rx="27" ry="3.2" fill="#000000" fill-opacity="0.4"/>

  <!-- coral branches (back) -->
  <g fill="none" stroke-linecap="round" stroke-linejoin="round">
    <path d="M44 42 V30 M44 34 L50 27 V20 M50 24 L54 19 M44 30 L40 24 V16 M40 20 L36.6 15 M50 27 L53 28" stroke="#4A0A22" stroke-width="3.6"/>
    <path d="M44 42 V30 M44 34 L50 27 V20 M50 24 L54 19 M44 30 L40 24 V16 M40 20 L36.6 15 M50 27 L53 28" stroke="url(#r2aCoral)" stroke-width="2.3"/>
    <path d="M43.4 40 V30.4 L39.6 24.4 V17" stroke="#FFFFFF" stroke-opacity="0.45" stroke-width="0.5"/>
    <path d="M18 42 V33 M18 36 L13 30 V24 M13 27 L10 23 M18 33 L22 27 V21" stroke="#4A0A22" stroke-width="3"/>
    <path d="M18 42 V33 M18 36 L13 30 V24 M13 27 L10 23 M18 33 L22 27 V21" stroke="url(#r2aCoral)" stroke-width="1.9"/>
    <path d="M12.6 29 V24.6 M17.4 40 V34" stroke="#FFFFFF" stroke-opacity="0.45" stroke-width="0.4"/>
  </g>
  <g>
    <circle cx="40" cy="15.6" r="1.4" fill="url(#r2aTip)" stroke="#4A0A22" stroke-width="0.35"/>
    <circle cx="36.4" cy="14.6" r="1.1" fill="url(#r2aTip)" stroke="#4A0A22" stroke-width="0.35"/>
    <circle cx="50" cy="19.6" r="1.4" fill="url(#r2aTip)" stroke="#4A0A22" stroke-width="0.35"/>
    <circle cx="54.2" cy="18.6" r="1.1" fill="url(#r2aTip)" stroke="#4A0A22" stroke-width="0.35"/>
    <circle cx="53.4" cy="28" r="0.9" fill="url(#r2aTip)" stroke="#4A0A22" stroke-width="0.3"/>
    <circle cx="13" cy="23.6" r="1.2" fill="url(#r2aTip)" stroke="#4A0A22" stroke-width="0.35"/>
    <circle cx="9.8" cy="22.6" r="0.9" fill="url(#r2aTip)" stroke="#4A0A22" stroke-width="0.3"/>
    <circle cx="22" cy="20.6" r="1.2" fill="url(#r2aTip)" stroke="#4A0A22" stroke-width="0.35"/>
    <circle cx="40" cy="15.6" r="2.8" fill="#FF6E91" fill-opacity="0.15"/>
    <circle cx="50" cy="19.6" r="2.8" fill="#FF6E91" fill-opacity="0.15"/>
  </g>

  <!-- cultivated algae rows -->
  <g fill="none" stroke-linecap="round">
    <path d="M24 42 C22.6 36 25.4 32 24 24 M28 42 C29.4 34 26.6 28 28.4 18 M32 42 C30.6 34 33.4 27 32 14 M36 42 C37.4 34 34.6 28 36.4 19 M40 42 C38.8 37 41 33 40 26" stroke="#06261C" stroke-width="2.6"/>
    <path d="M24 42 C22.6 36 25.4 32 24 24 M28 42 C29.4 34 26.6 28 28.4 18 M32 42 C30.6 34 33.4 27 32 14 M36 42 C37.4 34 34.6 28 36.4 19 M40 42 C38.8 37 41 33 40 26" stroke="url(#r2aAlgae)" stroke-width="1.6"/>
    <path d="M31.6 40 C30.4 33 33 27 31.6 16 M27.6 40 C29 34 26.2 28 28 20" stroke="#E0F7FA" stroke-opacity="0.5" stroke-width="0.4"/>
  </g>
  <g stroke="#06261C" stroke-width="0.3">
    <path d="M0 0 Q2.6 -1.8 5.2 0 Q2.6 1.8 0 0 Z" fill="#69F0AE" transform="translate(32.2 22) rotate(-35)"/>
    <path d="M0 0 Q2.6 -1.8 5.2 0 Q2.6 1.8 0 0 Z" fill="#3DDC97" transform="translate(31.8 30) rotate(215)"/>
    <path d="M0 0 Q2.4 -1.6 4.8 0 Q2.4 1.6 0 0 Z" fill="#69F0AE" transform="translate(28.2 26) rotate(210)"/>
    <path d="M0 0 Q2.4 -1.6 4.8 0 Q2.4 1.6 0 0 Z" fill="#3DDC97" transform="translate(36.2 27) rotate(-30)"/>
    <path d="M0 0 Q2.2 -1.4 4.4 0 Q2.2 1.4 0 0 Z" fill="#69F0AE" transform="translate(24.2 31) rotate(205)"/>
    <path d="M0 0 Q2.2 -1.4 4.4 0 Q2.2 1.4 0 0 Z" fill="#69F0AE" transform="translate(40 32) rotate(-28)"/>
    <path d="M0 0 Q2.2 -1.4 4.4 0 Q2.2 1.4 0 0 Z" fill="#3DDC97" transform="translate(28.6 36) rotate(-25)"/>
    <path d="M0 0 Q2.2 -1.4 4.4 0 Q2.2 1.4 0 0 Z" fill="#3DDC97" transform="translate(35.6 36) rotate(205)"/>
  </g>
  <g>
    <circle cx="32" cy="13.4" r="2.6" fill="#69F0AE" fill-opacity="0.2"/>
    <circle cx="32" cy="13.4" r="1" fill="url(#r2aPod)"/>
    <circle cx="28.4" cy="17.6" r="0.75" fill="url(#r2aPod)"/>
    <circle cx="36.4" cy="18.6" r="0.75" fill="url(#r2aPod)"/>
    <circle cx="24" cy="23.6" r="0.65" fill="url(#r2aPod)"/>
    <circle cx="40" cy="25.6" r="0.65" fill="url(#r2aPod)"/>
  </g>

  <!-- tended bed (raised planter) -->
  <g>
    <path d="M7 41 H57 L54 56 H10 Z" fill="url(#r2aBed)" stroke="#0A0E1A" stroke-width="0.6"/>
    <path d="M7.6 41.4 H56.4" stroke="#FFFFFF" stroke-opacity="0.2" stroke-width="0.4"/>
    <ellipse cx="32" cy="41.6" rx="24.6" ry="2.4" fill="url(#r2aSoil)" stroke="#0A0E1A" stroke-width="0.5"/>
    <path d="M10 41 q4 -1.2 8 0 q4 1.2 8 0 q4 -1.2 8 0 q4 1.2 8 0 q4 -1.2 8 0 q3 1 5 0.4" fill="none" stroke="#69F0AE" stroke-opacity="0.5" stroke-width="0.45"/>
    <!-- planks -->
    <path d="M8.6 47 H55.6 M9.8 52 H54.4" stroke="#1B0F0C" stroke-width="0.6"/>
    <path d="M8.8 47.6 H55.4 M10 52.6 H54.2" stroke="#8D6E63" stroke-opacity="0.5" stroke-width="0.35"/>
    <path d="M20 43.6 V56 M32 44 V56 M44 43.6 V56" stroke="#1B0F0C" stroke-width="0.5" stroke-opacity="0.8"/>
    <!-- metal corner brackets -->
    <path d="M7 41 H11.4 V45.6 L7.9 45.6 Z" fill="url(#r2aFrame)" stroke="#1C2A33" stroke-width="0.35"/>
    <path d="M57 41 H52.6 V45.6 L56.1 45.6 Z" fill="url(#r2aFrame)" stroke="#1C2A33" stroke-width="0.35"/>
    <path d="M10 56 H14.4 V51.4 H11 Z" fill="url(#r2aFrame)" stroke="#1C2A33" stroke-width="0.35"/>
    <path d="M54 56 H49.6 V51.4 H53 Z" fill="url(#r2aFrame)" stroke="#1C2A33" stroke-width="0.35"/>
    <circle cx="9.4" cy="43.2" r="0.4" fill="#ECEFF1"/>
    <circle cx="54.6" cy="43.2" r="0.4" fill="#ECEFF1"/>
    <circle cx="12.4" cy="53.8" r="0.4" fill="#ECEFF1"/>
    <circle cx="51.6" cy="53.8" r="0.4" fill="#ECEFF1"/>
    <!-- grow strip -->
    <rect x="18" y="48.6" width="28" height="2" rx="1" fill="#0A0E1A" stroke="#1C2A33" stroke-width="0.3"/>
    <rect x="18.6" y="49.1" width="26.8" height="1" rx="0.5" fill="#69F0AE" fill-opacity="0.35"/>
    <path d="M19.4 49.6 H44.6" stroke="#B9F6CA" stroke-width="0.4" stroke-dasharray="1.6 1.2"/>
    <path d="M57 41 L54 56" stroke="#1DE9B6" stroke-opacity="0.5" stroke-width="0.5"/>
  </g>

  <!-- watering drops -->
  <g fill="#80DEEA" stroke="#006064" stroke-width="0.3">
    <path d="M14 9 q1.4 2 0 3 q-1.4 -1 0 -3 Z"/>
    <path d="M18 5 q1.2 1.7 0 2.6 q-1.2 -0.9 0 -2.6 Z"/>
    <path d="M10.6 14 q1 1.4 0 2.2 q-1 -0.8 0 -2.2 Z"/>
  </g>

  <!-- double-up chevrons (+25%) -->
  <g fill="none" stroke-linecap="round" stroke-linejoin="round">
    <path d="M55 12 L58.4 8.6 L61.8 12 M55 16 L58.4 12.6 L61.8 16" stroke="#06261C" stroke-width="2.2"/>
    <path d="M55 12 L58.4 8.6 L61.8 12 M55 16 L58.4 12.6 L61.8 16" stroke="#69F0AE" stroke-width="1.2"/>
  </g>

  <!-- plankton & bubbles -->
  <g fill="#69F0AE">
    <circle cx="4" cy="34" r="1.3" fill-opacity="0.15"/>
    <circle cx="4" cy="34" r="0.45" fill-opacity="0.9"/>
    <circle cx="60" cy="36" r="1.3" fill-opacity="0.15"/>
    <circle cx="60" cy="36" r="0.45" fill-opacity="0.9"/>
    <circle cx="46" cy="6" r="1.2" fill-opacity="0.15"/>
    <circle cx="46" cy="6" r="0.4" fill-opacity="0.9"/>
  </g>
  <g fill="#E0F7FA" fill-opacity="0.12" stroke="#E0F7FA" stroke-width="0.35" stroke-opacity="0.75">
    <circle cx="26" cy="8" r="1.2"/>
    <circle cx="23.4" cy="4.4" r="0.7"/>
  </g>
  <circle cx="25.6" cy="7.6" r="0.35" fill="#FFFFFF"/>
</svg>
