<?xml version="1.0" encoding="UTF-8"?>
<svg xmlns="http://www.w3.org/2000/svg" xmlns:xlink="http://www.w3.org/1999/xlink" 
     viewBox="0 0 128 128" width="128" height="128">
  <defs>
    <filter id="glow6318" x="-50%" y="-50%" width="200%" height="200%">
      <feGaussianBlur stdDeviation="2" result="coloredBlur"/>
      <feMerge>
        <feMergeNode in="coloredBlur"/>
        <feMergeNode in="SourceGraphic"/>
      </feMerge>
    </filter>
    <filter id="deepglow6318" x="-50%" y="-50%" width="200%" height="200%">
      <feGaussianBlur stdDeviation="3" result="coloredBlur"/>
      <feMerge>
        <feMergeNode in="coloredBlur"/>
        <feMergeNode in="SourceGraphic"/>
      </feMerge>
    </filter>
    <linearGradient id="grad16318" x1="0%" y1="0%" x2="0%" y2="100%">
      <stop offset="0%" style="stop-color:#0099ff;stop-opacity:0.8" />
      <stop offset="100%" style="stop-color:#008899;stop-opacity:0.4" />
    </linearGradient>
    <radialGradient id="radial16318" cx="50%" cy="50%" r="50%">
      <stop offset="0%" style="stop-color:#00ffcc;stop-opacity:0.9" />
      <stop offset="100%" style="stop-color:#003366;stop-opacity:0.2" />
    </radialGradient>
  </defs>
  <rect width="128" height="128" fill="#0a0e27"/>
    <rect width="128" height="128" fill="#0d1a3a"/>
  <!-- Coral branches -->
  <path d="M 30 100 Q 35 80 30 60" stroke="#ff6699" stroke-width="3" fill="none" stroke-linecap="round"/>
  <path d="M 35 75 Q 45 70 50 75" stroke="#00cc66" stroke-width="2" fill="none"/>
  <path d="M 95 100 Q 90 75 95 50" stroke="#ff9933" stroke-width="3" fill="none" stroke-linecap="round"/>
  <path d="M 85 80 Q 75 75 70 80" stroke="#ff66cc" stroke-width="2" fill="none"/>
  <!-- Coral polyps -->
  <circle cx="32" cy="65" r="2.5" fill="#ff6699" filter="url(#glow)"/>
  <circle cx="35" cy="75" r="2" fill="#ff6699" filter="url(#glow)"/>
  <circle cx="48" cy="72" r="1.5" fill="#00cc66" filter="url(#glow)"/>
  <circle cx="90" cy="60" r="2.5" fill="#ff9933" filter="url(#glow)"/>
  <circle cx="92" cy="75" r="2" fill="#ff9933" filter="url(#glow)"/>
  <circle cx="72" cy="78" r="1.5" fill="#ff66cc" filter="url(#glow)"/>
  <!-- Sea anemones -->
  <path d="M 60 95 Q 58 85 60 75" stroke="#00ffcc" stroke-width="1.5" fill="none" opacity="0.8"/>
  <path d="M 65 95 Q 63 85 65 75" stroke="#00ffcc" stroke-width="1.5" fill="none" opacity="0.8"/>
  <path d="M 70 95 Q 68 85 70 75" stroke="#00ffcc" stroke-width="1.5" fill="none" opacity="0.8"/>
  <!-- Small fish silhouettes -->
  <ellipse cx="40" cy="50" rx="3" ry="1.5" fill="#0099ff" opacity="0.6"/>
  <ellipse cx="80" cy="40" rx="2.5" ry="1" fill="#00ffcc" opacity="0.6"/>
  <rect width="128" height="128" fill="url(#grad1)" opacity="0.25"/>

</svg>