<svg xmlns="http://www.w3.org/2000/svg" viewBox="0 0 64 64">
  <defs>
    <linearGradient id="cmSand" x1="0" y1="0" x2="0" y2="1"><stop offset="0" stop-color="#5B84AC"/><stop offset="0.4" stop-color="#2F5A82"/><stop offset="1" stop-color="#13243A"/></linearGradient>
    <radialGradient id="cmPeb" cx="0.35" cy="0.3" r="0.75"><stop offset="0" stop-color="#CFD8DC"/><stop offset="0.5" stop-color="#78909C"/><stop offset="1" stop-color="#37474F"/></radialGradient>
    <linearGradient id="cmLeg" x1="0" y1="0" x2="1" y2="0"><stop offset="0" stop-color="#B0BEC5"/><stop offset="0.5" stop-color="#607D8B"/><stop offset="1" stop-color="#2E3C43"/></linearGradient>
    <linearGradient id="cmMetal" x1="0" y1="0" x2="0" y2="1"><stop offset="0" stop-color="#CFD8DC"/><stop offset="0.45" stop-color="#78909C"/><stop offset="1" stop-color="#263238"/></linearGradient>
    <linearGradient id="cmCoral" x1="0" y1="0" x2="0" y2="1"><stop offset="0" stop-color="#FF9EB8"/><stop offset="1" stop-color="#D81B60"/></linearGradient>
    <radialGradient id="cmChunk" cx="0.35" cy="0.3" r="0.8"><stop offset="0" stop-color="#FFE0EA"/><stop offset="0.45" stop-color="#FF6E91"/><stop offset="1" stop-color="#AD1457"/></radialGradient>
    <linearGradient id="cmBit" x1="0" y1="0" x2="1" y2="0"><stop offset="0" stop-color="#ECEFF1"/><stop offset="0.5" stop-color="#90A4AE"/><stop offset="1" stop-color="#455A64"/></linearGradient>
    <linearGradient id="cmBox" x1="0" y1="0" x2="1" y2="1"><stop offset="0" stop-color="#B0BEC5"/><stop offset="0.5" stop-color="#607D8B"/><stop offset="1" stop-color="#263238"/></linearGradient>
  </defs>
  <!-- seabed mound + contact shadow -->
  <g>
    <ellipse cx="32" cy="56.8" rx="29" ry="3.6" fill="#000000" fill-opacity="0.38"/>
    <path d="M5 55 C8 50.5 20 49 32 49 C44 49 56 50.5 59 55 C56 58.2 44 59.5 32 59.5 C20 59.5 8 58.2 5 55 Z" fill="url(#cmSand)" stroke="#0A0E1A" stroke-width="0.5" stroke-opacity="0.7"/>
    <ellipse cx="32" cy="52" rx="18" ry="2" fill="#0A0E1A" fill-opacity="0.45"/>
    <path d="M6 54.4 C9 50.6 20 49.6 30 49.5" fill="none" stroke="#9CC3E6" stroke-opacity="0.5" stroke-width="0.6" stroke-linecap="round"/>
    <path d="M58 55.8 C55 58.4 44 59 36 59.2" fill="none" stroke="#00E5FF" stroke-opacity="0.45" stroke-width="0.5" stroke-linecap="round"/>
    <path d="M10 56.2 q3 -1 6 0 M47 57.4 q3 -1 6 0 M24 58.2 q3 -0.8 6 0" fill="none" stroke="#0D1B2A" stroke-opacity="0.45" stroke-width="0.4" stroke-linecap="round"/>
    <ellipse cx="9" cy="55.5" rx="1.4" ry="0.9" fill="url(#cmPeb)" stroke="#0A0E1A" stroke-width="0.3" stroke-opacity="0.6"/>
    <ellipse cx="13.5" cy="57.3" rx="0.9" ry="0.6" fill="url(#cmPeb)" stroke="#0A0E1A" stroke-width="0.3" stroke-opacity="0.6"/>
    <ellipse cx="53.5" cy="56.6" rx="1.3" ry="0.8" fill="url(#cmPeb)" stroke="#0A0E1A" stroke-width="0.3" stroke-opacity="0.6"/>
    <ellipse cx="57" cy="55" rx="0.8" ry="0.55" fill="url(#cmPeb)" stroke="#0A0E1A" stroke-width="0.3" stroke-opacity="0.6"/>
    <path d="M8 54.5 q-1 -2.5 0.6 -4.5 M9.2 54.7 q0.8 -2 -0.2 -3.6 M55.6 54.6 q1 -2.6 -0.4 -4.8 M56.8 55 q-0.6 -1.8 0.6 -3.2" fill="none" stroke="#69F0AE" stroke-opacity="0.85" stroke-width="0.6" stroke-linecap="round"/>
  </g>
  <!-- coral cluster (left) -->
  <g>
    <path d="M9 52 C9 47 7 45 5.4 41.5 M8.6 48 C10.6 46.4 11.4 44 11 41.6 M7.4 45.2 C5.6 44.6 4.6 43.4 4.2 42.4 M10.8 44.6 C12.6 43.8 13.6 42.6 13.6 41.2" fill="none" stroke="url(#cmCoral)" stroke-width="1.6" stroke-linecap="round"/>
    <path d="M8.8 51 C8.6 47.6 7.2 45.6 6 43" fill="none" stroke="#FFC1D3" stroke-opacity="0.6" stroke-width="0.4" stroke-linecap="round"/>
    <circle cx="5.4" cy="41.4" r="0.85" fill="#FFB3C6"/>
    <circle cx="11" cy="41.5" r="0.85" fill="#FFB3C6"/>
    <circle cx="4.2" cy="42.3" r="0.7" fill="#FFB3C6"/>
    <circle cx="13.6" cy="41.1" r="0.7" fill="#FFB3C6"/>
  </g>
  <!-- coral cluster (right, smaller) -->
  <g transform="translate(64 2) scale(-0.8 0.8) translate(-2 10)">
    <path d="M9 52 C9 47 7 45 5.4 41.5 M8.6 48 C10.6 46.4 11.4 44 11 41.6 M7.4 45.2 C5.6 44.6 4.6 43.4 4.2 42.4 M10.8 44.6 C12.6 43.8 13.6 42.6 13.6 41.2" fill="none" stroke="url(#cmCoral)" stroke-width="1.6" stroke-linecap="round"/>
    <path d="M8.8 51 C8.6 47.6 7.2 45.6 6 43" fill="none" stroke="#FFC1D3" stroke-opacity="0.6" stroke-width="0.4" stroke-linecap="round"/>
    <circle cx="5.4" cy="41.4" r="0.85" fill="#FFB3C6"/>
    <circle cx="11" cy="41.5" r="0.85" fill="#FFB3C6"/>
    <circle cx="4.2" cy="42.3" r="0.7" fill="#FFB3C6"/>
    <circle cx="13.6" cy="41.1" r="0.7" fill="#FFB3C6"/>
  </g>
  <!-- drill shaft + cable -->
  <g>
    <rect x="30.4" y="12" width="3.2" height="33" fill="url(#cmBit)" stroke="#1C2A33" stroke-width="0.35"/>
    <path d="M30.4 18 H33.6 M30.4 25 H33.6 M30.4 32 H33.6 M30.4 39 H33.6" stroke="#263238" stroke-width="0.4"/>
    <path d="M31 12.5 V44" stroke="#FFFFFF" stroke-opacity="0.45" stroke-width="0.35"/>
  </g>
  <!-- derrick legs + lattice -->
  <g>
    <path d="M19 52 L27.2 9.5 H29.4 L22.6 52 Z M45 52 L36.8 9.5 H34.6 L41.4 52 Z" fill="url(#cmLeg)" stroke="#1C2A33" stroke-width="0.5" stroke-linejoin="round"/>
    <path d="M23.88 44 L38.84 36 M40.12 44 L25.16 36 M25.16 36 L37.56 28 M38.84 36 L26.44 28 M26.44 28 L36.28 20 M37.56 28 L27.72 20 M27.72 20 L35.16 13 M36.28 20 L28.84 13" stroke="#78909C" stroke-width="0.7" stroke-linecap="round"/>
    <path d="M23.88 44 H40.12 M25.16 36 H38.84 M26.44 28 H37.56 M27.72 20 H36.28 M28.84 13 H35.16" stroke="#90A4AE" stroke-width="1" stroke-linecap="round"/>
    <path d="M23.88 44 H40.12 M25.16 36 H38.84 M26.44 28 H37.56 M27.72 20 H36.28 M28.84 13 H35.16" stroke="#263238" stroke-opacity="0.5" stroke-width="0.3" transform="translate(0 0.45)"/>
    <path d="M19.8 51 L27.6 10.5" stroke="#FFFFFF" stroke-opacity="0.4" stroke-width="0.4"/>
    <path d="M44.2 51 L36.4 10.5" stroke="#00E5FF" stroke-opacity="0.55" stroke-width="0.45"/>
    <circle cx="22.88" cy="44" r="0.3" fill="#CFD8DC" stroke="#1C2A33" stroke-width="0.25"/>
    <circle cx="24.16" cy="36" r="0.3" fill="#CFD8DC" stroke="#1C2A33" stroke-width="0.25"/>
    <circle cx="25.44" cy="28" r="0.3" fill="#CFD8DC" stroke="#1C2A33" stroke-width="0.25"/>
    <circle cx="26.72" cy="20" r="0.3" fill="#CFD8DC" stroke="#1C2A33" stroke-width="0.25"/>
    <circle cx="27.84" cy="13" r="0.3" fill="#CFD8DC" stroke="#1C2A33" stroke-width="0.25"/>
    <circle cx="41.12" cy="44" r="0.3" fill="#CFD8DC" stroke="#1C2A33" stroke-width="0.25"/>
    <circle cx="39.84" cy="36" r="0.3" fill="#CFD8DC" stroke="#1C2A33" stroke-width="0.25"/>
    <circle cx="38.56" cy="28" r="0.3" fill="#CFD8DC" stroke="#1C2A33" stroke-width="0.25"/>
    <circle cx="37.28" cy="20" r="0.3" fill="#CFD8DC" stroke="#1C2A33" stroke-width="0.25"/>
    <circle cx="36.16" cy="13" r="0.3" fill="#CFD8DC" stroke="#1C2A33" stroke-width="0.25"/>
  </g>
  <!-- working platform -->
  <g>
    <path d="M19.6 36.6 H44.4 V38.2 H19.6 Z" fill="url(#cmMetal)" stroke="#1C2A33" stroke-width="0.35"/>
    <path d="M20 36.6 V33.4 H44 V36.6 M24 36.6 V33.4 M28 36.6 V33.4 M36 36.6 V33.4 M40 36.6 V33.4" fill="none" stroke="#B0BEC5" stroke-width="0.4"/>
    <circle cx="21" cy="32.6" r="1.8" fill="#00E5FF" fill-opacity="0.08"/>
    <circle cx="21" cy="32.6" r="1.14" fill="#00E5FF" fill-opacity="0.2"/>
    <circle cx="21" cy="32.6" r="0.6" fill="#E0F7FA"/>
  </g>
  <!-- winch house + pulley -->
  <g>
    <rect x="25.4" y="5.6" width="13.2" height="6.4" rx="1" fill="url(#cmBox)" stroke="#1C2A33" stroke-width="0.45"/>
    <rect x="26.2" y="6.2" width="11.6" height="0.8" rx="0.4" fill="#FFFFFF" fill-opacity="0.4"/>
    <path d="M29.5 5.6 V12 M34.5 5.6 V12" stroke="#263238" stroke-opacity="0.55" stroke-width="0.35"/>
    <circle cx="26.5" cy="11" r="0.28" fill="#CFD8DC" stroke="#1C2A33" stroke-width="0.25"/>
    <circle cx="37.5" cy="11" r="0.28" fill="#CFD8DC" stroke="#1C2A33" stroke-width="0.25"/>
    <circle cx="26.5" cy="8" r="0.28" fill="#CFD8DC" stroke="#1C2A33" stroke-width="0.25"/>
    <circle cx="37.5" cy="8" r="0.28" fill="#CFD8DC" stroke="#1C2A33" stroke-width="0.25"/>
    <circle cx="32" cy="5.2" r="2.6" fill="url(#cmMetal)" stroke="#1C2A33" stroke-width="0.4"/>
    <path d="M32 2.8 V7.6 M29.6 5.2 H34.4 M30.3 3.5 L33.7 6.9 M33.7 3.5 L30.3 6.9" stroke="#37474F" stroke-width="0.35"/>
    <circle cx="32" cy="5.2" r="0.7" fill="#ECEFF1" stroke="#263238" stroke-width="0.25"/>
    <circle cx="32" cy="9" r="2.25" fill="#FF6E91" fill-opacity="0.08"/>
    <circle cx="32" cy="9" r="1.42" fill="#FF6E91" fill-opacity="0.2"/>
    <circle cx="32" cy="9" r="0.75" fill="#FFE0EA"/>
  </g>
  <!-- spiral drill bit -->
  <g>
    <path d="M28 44 H36 L32 53 Z" fill="url(#cmBit)" stroke="#1C2A33" stroke-width="0.45" stroke-linejoin="round"/>
    <path d="M28.6 45.6 L35.2 46.8 M29.4 47.8 L34.4 49 M30.4 50 L33.4 50.9" stroke="#263238" stroke-width="0.5"/>
    <path d="M28.8 44.6 L35.4 45.8 M29.6 46.8 L34.8 48" stroke="#FFFFFF" stroke-opacity="0.5" stroke-width="0.3"/>
    <rect x="27.4" y="42.6" width="9.2" height="2" rx="0.6" fill="url(#cmMetal)" stroke="#1C2A33" stroke-width="0.35"/>
    <ellipse cx="32" cy="53" rx="4" ry="1.2" fill="#FF6E91" fill-opacity="0.35"/>
  </g>
  <!-- flying coral chips -->
  <g>
    <path d="M26 50.5 l-1.2 -1 l0.4 -1.2 l1.2 0.8 Z M37.8 49.6 l1.4 -0.6 l0.5 1.2 l-1.2 0.6 Z M24.4 47 l-0.8 -0.4 l0.2 -0.8 l0.8 0.4 Z" fill="url(#cmChunk)" stroke="#880E4F" stroke-width="0.25"/>
  </g>
  <!-- ore cart with coral chunks -->
  <g>
    <circle cx="48.6" cy="49" r="1.5" fill="url(#cmChunk)" stroke="#880E4F" stroke-width="0.3"/>
    <circle cx="51.4" cy="48.4" r="1.7" fill="url(#cmChunk)" stroke="#880E4F" stroke-width="0.3"/>
    <circle cx="54" cy="49.2" r="1.3" fill="url(#cmChunk)" stroke="#880E4F" stroke-width="0.3"/>
    <path d="M45.6 49.4 H57.6 L56.4 53 H46.8 Z" fill="url(#cmBox)" stroke="#1C2A33" stroke-width="0.45" stroke-linejoin="round"/>
    <path d="M46 50.2 H57.2" stroke="#FFFFFF" stroke-opacity="0.45" stroke-width="0.3"/>
    <circle cx="47.4" cy="51.4" r="0.28" fill="#CFD8DC" stroke="#1C2A33" stroke-width="0.25"/>
    <circle cx="50.2" cy="51.4" r="0.28" fill="#CFD8DC" stroke="#1C2A33" stroke-width="0.25"/>
    <circle cx="53" cy="51.4" r="0.28" fill="#CFD8DC" stroke="#1C2A33" stroke-width="0.25"/>
    <circle cx="55.8" cy="51.4" r="0.28" fill="#CFD8DC" stroke="#1C2A33" stroke-width="0.25"/>
    <circle cx="48.6" cy="53.4" r="1.1" fill="#37474F" stroke="#0A0E1A" stroke-width="0.35"/>
    <circle cx="54.6" cy="53.4" r="1.1" fill="#37474F" stroke="#0A0E1A" stroke-width="0.35"/>
    <circle cx="48.6" cy="53.4" r="0.35" fill="#B0BEC5"/>
    <circle cx="54.6" cy="53.4" r="0.35" fill="#B0BEC5"/>
    <circle cx="50.8" cy="47.8" r="0.4" fill="#FFFFFF" fill-opacity="0.9"/>
  </g>
  <!-- bubbles -->
  <g>
    <circle cx="40" cy="6" r="1.1" fill="#B2EBF2" fill-opacity="0.12" stroke="#E0F7FA" stroke-opacity="0.75" stroke-width="0.3"/>
    <circle cx="39.58" cy="5.58" r="0.31" fill="#FFFFFF" fill-opacity="0.85"/>
    <circle cx="42.5" cy="2.8" r="0.6" fill="#B2EBF2" fill-opacity="0.12" stroke="#E0F7FA" stroke-opacity="0.75" stroke-width="0.3"/>
    <circle cx="22" cy="4" r="0.7" fill="#B2EBF2" fill-opacity="0.12" stroke="#E0F7FA" stroke-opacity="0.75" stroke-width="0.3"/>
    <circle cx="37" cy="22" r="0.5" fill="#B2EBF2" fill-opacity="0.12" stroke="#E0F7FA" stroke-opacity="0.75" stroke-width="0.3"/>
    <circle cx="16" cy="18" r="0.9" fill="#B2EBF2" fill-opacity="0.12" stroke="#E0F7FA" stroke-opacity="0.75" stroke-width="0.3"/>
    <circle cx="15.66" cy="17.66" r="0.25" fill="#FFFFFF" fill-opacity="0.85"/>
  </g>
</svg>
