<svg xmlns="http://www.w3.org/2000/svg" viewBox="0 0 64 64">
  <path d="M6 54 H58 L54 60 H10 Z" fill="#1B3150"/>
  <rect x="6" y="52" width="52" height="3" fill="#2F5A82"/>
  <rect x="30" y="30" width="4" height="22" fill="#78909C"/>
  <path d="M24 52 L32 44 L40 52 Z" fill="#546E7A"/>
  <path d="M4 30 L12 8 H52 L60 30 Z" fill="#37474F"/>
  <path d="M7 28 L14 10 H50 L57 28 Z" fill="#5C4A0E"/>
  <path d="M9 27 L11.5 21 H22 L20.5 27 Z M23 27 L24.5 21 H39.5 L41 27 Z M43.5 27 L42 21 H52.5 L55 27 Z M12.5 18.5 L14.5 13 H24 L23 18.5 Z M25.5 18.5 L26 13 H38 L38.5 18.5 Z M41 18.5 L40 13 H49.5 L51.5 18.5 Z" fill="#FFD740"/>
  <path d="M14.5 13 L12.5 18.5 H18 Z M26 13 L25.5 18.5 H31 Z" fill="#FFF3C4"/>
  <circle cx="32" cy="38" r="2" fill="#FFD740"/>
</svg>
