<svg xmlns="http://www.w3.org/2000/svg" viewBox="0 0 64 64">
  <path d="M2 30 H12 M0 38 H10 M4 46 H12" stroke="#448AFF" stroke-width="2" stroke-linecap="round"/>
  <path d="M8 64 Q8 44 32 42 Q56 44 56 64 Z" fill="#1565C0"/>
  <path d="M32 42 Q56 44 56 64 H32 Z" fill="#0D47A1"/>
  <path d="M26 42 H38 L36 64 H28 Z" fill="#0A2A66"/>
  <circle cx="32" cy="26" r="15" fill="#1E88E5"/>
  <path d="M32 11 A15 15 0 0 1 32 41 Z" fill="#1565C0"/>
  <path d="M30 6 L36 2 L36 12 Z" fill="#82B1FF"/>
  <rect x="20" y="20" width="24" height="11" rx="5.5" fill="#0A0E1A"/>
  <rect x="22" y="22" width="20" height="7" rx="3.5" fill="#00E5FF"/>
  <rect x="24" y="23" width="6" height="2" rx="1" fill="#E0F7FA"/>
  <circle cx="44" cy="54" r="5" fill="#0A0E1A"/>
  <circle cx="44" cy="54" r="3.5" fill="#00E5FF"/>
  <path d="M42 54 H46 M44 52 V56" stroke="#0A0E1A" stroke-width="1"/>
</svg>
